<svg width="346.03884277343747px" height="128.03500976562498px" xmlns="http://www.w3.org/2000/svg" viewBox="76.98057861328127 10.982495117187511 346.03884277343747 128.03500976562498" style="background: rgb(253, 253, 253);" preserveAspectRatio="xMidYMid"><defs><filter id="editing-extrusion" x="-100%" y="-100%" width="300%" height="300%"><feFlood result="color1" flood-color="#bbcedd"></feFlood><feConvolveMatrix order="11,11" divisor="1" kernelMatrix="1 0 0 0 0 0 0 0 0 0 0 0 1 0 0 0 0 0 0 0 0 0 0 0 1 0 0 0 0 0 0 0 0 0 0 0 1 0 0 0 0 0 0 0 0 0 0 0 1 0 0 0 0 0 0 0 0 0 0 0 1 0 0 0 0 0 0 0 0 0 0 0 1 0 0 0 0 0 0 0 0 0 0 0 1 0 0 0 0 0 0 0 0 0 0 0 1 0 0 0 0 0 0 0 0 0 0 0 1 0 0 0 0 0 0 0 0 0 0 0 1" in="SourceAlpha" result="extrude"></feConvolveMatrix><feComposite in="color1" in2="extrude" result="comp-extrude" operator="in"></feComposite><feOffset dx="5.5" dy="5.5" in="comp-extrude" result="offset-extrude"></feOffset><feMerge><feMergeNode in="offset-extrude"></feMergeNode><feMergeNode in="SourceGraphic"></feMergeNode></feMerge></filter></defs><g filter="url(#editing-extrusion)"><g transform="translate(129.98405849933624, 100.5)"><path d="M4.11-2.04L4.11-2.04L4.11-2.04Q2.52-3.81 1.80-6.60L1.80-6.60L1.80-6.60Q1.09-9.38 1.09-13.94L1.09-13.94L1.09-13.94Q1.09-18.50 2.65-22.64L2.65-22.64L2.65-22.64Q4.22-26.79 7.07-29.78L7.07-29.78L7.07-29.78Q12.92-36.04 22.58-36.04L22.58-36.04L22.58-36.04Q26.04-36.04 28.56-34.88L28.56-34.88L40.19-36.04L35.16-9.52L35.16-9.52Q34.95-8.70 34.95-7.21L34.95-7.21L34.95-7.21Q34.95-5.71 35.87-4.76L35.87-4.76L35.87-4.76Q36.79-3.81 38.15-3.67L38.15-3.67L38.15-3.67Q37.47-1.36 34.99 0L34.99 0L34.99 0Q32.50 1.36 29.72 1.36L29.72 1.36L29.72 1.36Q26.93 1.36 25.06 0.31L25.06 0.31L25.06 0.31Q23.19-0.75 22.64-2.52L22.64-2.52L22.64-2.52Q21.56-0.82 19.24 0.27L19.24 0.27L19.24 0.27Q16.93 1.36 13.84 1.36L13.84 1.36L13.84 1.36Q10.74 1.36 8.23 0.54L8.23 0.54L8.23 0.54Q5.71-0.27 4.11-2.04ZM18.46-29.65L18.46-29.65L18.46-29.65Q17.68-28.42 17-26.35L17-26.35L17-26.35Q16.32-24.28 15.20-18.73L15.20-18.73L15.20-18.73Q14.08-13.19 14.08-9.25L14.08-9.25L14.08-9.25Q14.08-5.30 14.69-4.15L14.69-4.15L14.69-4.15Q15.30-2.99 16.39-2.99L16.39-2.99L16.39-2.99Q18.56-2.99 20.16-5.07L20.16-5.07L20.16-5.07Q21.76-7.14 22.37-10.81L22.37-10.81L25.98-30.74L25.98-30.74Q24.55-31.96 22.88-31.96L22.88-31.96L22.88-31.96Q21.22-31.96 20.23-31.42L20.23-31.42L20.23-31.42Q19.24-30.87 18.46-29.65ZM65.14-19.11L65.14-19.11L65.14-19.11Q67.59-23.46 67.59-27.88L67.59-27.88L67.59-27.88Q67.59-30.80 65.48-30.80L65.48-30.80L65.48-30.80Q63.85-30.80 62.15-28.02L62.15-28.02L62.15-28.02Q60.38-25.23 59.84-21.62L59.84-21.62L56.30 0L42.23 1.36L49.16-34.68L60.38-36.04L59.16-29.17L59.16-29.17Q62.49-36.04 69.97-36.04L69.97-36.04L69.97-36.04Q73.92-36.04 76.06-34L76.06-34L76.06-34Q78.20-31.96 78.20-27.78L78.20-27.78L78.20-27.78Q78.20-23.60 75.45-20.94L75.45-20.94L75.45-20.94Q72.69-18.29 68-18.29L68-18.29L68-18.29Q65.96-18.29 65.14-19.11ZM80.38-6.80L80.38-6.80L80.38-6.80Q80.38-8.64 81.33-13.26L81.33-13.26L84.93-31.62L80.92-31.62L81.19-33.66L81.19-33.66Q89.35-36.11 97.24-42.09L97.24-42.09L100.50-42.09L98.87-34.68L104.18-34.68L103.56-31.62L98.33-31.62L94.86-13.26L94.86-13.26Q93.98-9.04 93.98-7.62L93.98-7.62L93.98-7.62Q93.98-4.35 96.83-3.67L96.83-3.67L96.83-3.67Q96.15-1.36 93.70 0L93.70 0L93.70 0Q91.26 1.36 87.79 1.36L87.79 1.36L87.79 1.36Q84.32 1.36 82.35-0.82L82.35-0.82L82.35-0.82Q80.38-2.99 80.38-6.80ZM120.16-3.74L120.16-3.74L120.16-3.74Q118.05 1.36 111.32 1.36L111.32 1.36L111.32 1.36Q107.85 1.36 105.67-1.02L105.67-1.02L105.67-1.02Q103.84-3.13 103.84-5.24L103.84-5.24L103.84-5.24Q103.84-10.74 106.35-21.49L106.35-21.49L108.87-34.68L122.67-36.04L118.52-14.55L118.52-14.55Q117.37-9.52 117.37-7.75L117.37-7.75L117.37-7.75Q117.37-3.88 120.16-3.74ZM110.09-44.13L110.09-44.13L110.09-44.13Q110.09-46.78 112.30-48.21L112.30-48.21L112.30-48.21Q114.51-49.64 117.71-49.64L117.71-49.64L117.71-49.64Q120.90-49.64 122.84-48.21L122.84-48.21L122.84-48.21Q124.78-46.78 124.78-44.13L124.78-44.13L124.78-44.13Q124.78-41.48 122.64-40.12L122.64-40.12L122.64-40.12Q120.50-38.76 117.30-38.76L117.30-38.76L117.30-38.76Q114.10-38.76 112.10-40.12L112.10-40.12L112.10-40.12Q110.09-41.48 110.09-44.13ZM146.27-23.87L146.27-23.87L146.27-23.87Q147.22-26.38 147.22-28.56L147.22-28.56L147.22-28.56Q147.22-32.57 143.96-32.57L143.96-32.57L143.96-32.57Q142.26-32.57 140.86-31.04L140.86-31.04L140.86-31.04Q139.47-29.51 139.47-27.61L139.47-27.61L139.47-27.61Q139.47-26.25 140.56-25.16L140.56-25.16L140.56-25.16Q142.12-23.66 146.13-21.22L146.13-21.22L146.13-21.22Q150.14-18.77 151.67-16.76L151.67-16.76L151.67-16.76Q153.20-14.76 153.20-12.00L153.20-12.00L153.20-12.00Q153.20-9.25 151.88-6.73L151.88-6.73L151.88-6.73Q150.55-4.22 148.17-2.45L148.17-2.45L148.17-2.45Q143.07 1.36 134.91 1.36L134.91 1.36L134.91 1.36Q130.49 1.36 127.09-0.95L127.09-0.95L127.09-0.95Q123.69-3.20 123.69-5.85L123.69-5.85L123.69-5.85Q123.69-8.50 125.63-10.06L125.63-10.06L125.63-10.06Q127.57-11.63 130.42-11.63L130.42-11.63L130.42-11.63Q133.28-11.63 135.05-10.54L135.05-10.54L135.05-10.54Q134.16-8.30 134.16-6.80L134.16-6.80L134.16-6.80Q134.16-2.31 137.97-2.31L137.97-2.31L137.97-2.31Q139.60-2.31 140.69-3.33L140.69-3.33L140.69-3.33Q141.78-4.35 141.78-6.12L141.78-6.12L141.78-6.12Q141.78-9.59 135.93-13.26L135.93-13.26L135.93-13.26Q131.17-16.39 130.08-17.61L130.08-17.61L130.08-17.61Q128.25-19.79 128.25-22.51L128.25-22.51L128.25-22.51Q128.25-25.23 129.54-27.81L129.54-27.81L129.54-27.81Q130.83-30.40 133.21-32.23L133.21-32.23L133.21-32.23Q138.18-36.04 146.81-36.04L146.81-36.04L146.81-36.04Q151.23-36.04 153.85-34.27L153.85-34.27L153.85-34.27Q156.47-32.50 156.47-29.51L156.47-29.51L156.47-29.51Q156.47-26.52 154.67-24.82L154.67-24.82L154.67-24.82Q152.86-23.12 149.60-23.12L149.60-23.12L149.60-23.12Q147.36-23.12 146.27-23.87ZM160.07-6.80L160.07-6.80L160.07-6.80Q160.07-8.64 161.02-13.26L161.02-13.26L164.63-31.62L160.62-31.62L160.89-33.66L160.89-33.66Q169.05-36.11 176.94-42.09L176.94-42.09L180.20-42.09L178.57-34.68L183.87-34.68L183.26-31.62L178.02-31.62L174.56-13.26L174.56-13.26Q173.67-9.04 173.67-7.62L173.67-7.62L173.67-7.62Q173.67-4.35 176.53-3.67L176.53-3.67L176.53-3.67Q175.85-1.36 173.40 0L173.40 0L173.40 0Q170.95 1.36 167.48 1.36L167.48 1.36L167.48 1.36Q164.02 1.36 162.04-0.82L162.04-0.82L162.04-0.82Q160.07-2.99 160.07-6.80ZM199.85-3.74L199.85-3.74L199.85-3.74Q197.74 1.36 191.01 1.36L191.01 1.36L191.01 1.36Q187.54 1.36 185.37-1.02L185.37-1.02L185.37-1.02Q183.53-3.13 183.53-5.24L183.53-5.24L183.53-5.24Q183.53-10.74 186.05-21.49L186.05-21.49L188.56-34.68L202.37-36.04L198.22-14.55L198.22-14.55Q197.06-9.52 197.06-7.75L197.06-7.75L197.06-7.75Q197.06-3.88 199.85-3.74ZM189.79-44.13L189.79-44.13L189.79-44.13Q189.79-46.78 192.00-48.21L192.00-48.21L192.00-48.21Q194.21-49.64 197.40-49.64L197.40-49.64L197.40-49.64Q200.60-49.64 202.54-48.21L202.54-48.21L202.54-48.21Q204.48-46.78 204.48-44.13L204.48-44.13L204.48-44.13Q204.48-41.48 202.33-40.12L202.33-40.12L202.33-40.12Q200.19-38.76 197.00-38.76L197.00-38.76L197.00-38.76Q193.80-38.76 191.79-40.12L191.79-40.12L191.79-40.12Q189.79-41.48 189.79-44.13ZM239.02-28.29L239.02-28.29L239.02-28.29Q239.02-25.43 236.64-23.66L236.64-23.66L236.64-23.66Q234.26-21.90 230.38-21.90L230.38-21.90L230.38-21.90Q228.75-21.90 227.80-22.37L227.80-22.37L227.80-22.37Q228.55-24.14 228.79-26.35L228.79-26.35L228.79-26.35Q229.02-28.56 229.02-29.17L229.02-29.17L229.02-29.17Q229.02-32.03 227.05-32.03L227.05-32.03L227.05-32.03Q225.69-32.03 224.16-30.33L224.16-30.33L224.16-30.33Q222.63-28.63 221.34-25.98L221.34-25.98L221.34-25.98Q218.48-19.86 218.48-13.67L218.48-13.67L218.48-13.67Q218.48-10.27 219.78-8.74L219.78-8.74L219.78-8.74Q221.07-7.21 223.92-7.21L223.92-7.21L223.92-7.21Q227.87-7.21 231.00-10.47L231.00-10.47L231.00-10.47Q231.88-11.49 232.36-12.65L232.36-12.65L232.36-12.65Q234.94-11.29 234.94-7.55L234.94-7.55L234.94-7.55Q234.94-3.74 230.72-1.22L230.72-1.22L230.72-1.22Q226.37 1.36 219.44 1.36L219.44 1.36L219.44 1.36Q205.63 1.36 205.63-13.26L205.63-13.26L205.63-13.26Q205.63-23.94 211.68-30.06L211.68-30.06L211.68-30.06Q217.53-36.04 228.28-36.04L228.28-36.04L228.28-36.04Q239.02-36.04 239.02-28.29Z" fill="#85a2b6"></path></g></g><style>text {
  font-size: 64px;
  font-family: Arial Black;
  dominant-baseline: central;
  text-anchor: middle;
}</style></svg>